<?xml version="1.0" encoding="utf-8"?>
<!-- Generator: Adobe Illustrator 24.2.1, SVG Export Plug-In . SVG Version: 6.00 Build 0)  -->
<svg version="1.1" id="Layer_1" xmlns="http://www.w3.org/2000/svg" xmlns:xlink="http://www.w3.org/1999/xlink" x="0px" y="0px"
	 viewBox="0 0 60 60" style="enable-background:new 0 0 60 60;" xml:space="preserve">
<style type="text/css">
	.st0{fill:#000;}
</style>
<g id="Component_51_1" transform="translate(111.039 0)">
	<g id="Rectangle_113">
		<path class="st0" d="M-81.04,3c14.89,0,27,12.11,27,27s-12.11,27-27,27s-27-12.11-27-27S-95.93,3-81.04,3 M-81.04,0
			c-16.57,0-30,13.43-30,30s13.43,30,30,30s30-13.43,30-30S-64.47,0-81.04,0L-81.04,0z"/>
	</g>
	<path id="Path_29208" class="st0" d="M-85.61,48.13h7.31V29.85h5.09l0.54-6.12h-5.64v-3.49c0-1.44,0.29-2.02,1.69-2.02h3.95v-6.35
		h-5.06c-5.44,0-7.89,2.4-7.89,6.98v4.88h-3.8v6.21h3.8L-85.61,48.13z"/>
</g>
</svg>
