<?xml version="1.0" encoding="utf-8"?>
<!-- Generator: Adobe Illustrator 24.2.1, SVG Export Plug-In . SVG Version: 6.00 Build 0)  -->
<svg version="1.1" id="Layer_1" xmlns="http://www.w3.org/2000/svg" xmlns:xlink="http://www.w3.org/1999/xlink" x="0px" y="0px"
	 viewBox="0 0 60 60" style="enable-background:new 0 0 60 60;" xml:space="preserve">
<style type="text/css">
	.st0{fill:#000;}
</style>
<g id="Component_52_1" transform="translate(166.559)">
	<g id="Path_29209">
		<path class="st0" d="M-136.56,3L-136.56,3c14.89,0,27,12.11,27,27c0,7.21-2.81,13.99-7.91,19.09c-5.1,5.1-11.88,7.91-19.09,7.91
			c-14.89,0-27-12.11-27-27C-163.56,15.11-151.45,3-136.56,3 M-136.56,0c-16.57,0-30,13.43-30,30c0,16.57,13.43,30,30,30h0
			c16.57,0,30-13.43,30-30C-106.56,13.43-119.99,0-136.56,0L-136.56,0z"/>
	</g>
	<g id="Group_24128" transform="translate(8.514 8.515)">
		<path id="Path_29210" class="st0" d="M-145.07,7.99c4.39,0,4.91,0.02,6.65,0.1c1.04,0.01,2.08,0.2,3.05,0.56
			c1.43,0.56,2.57,1.69,3.12,3.12c0.36,0.98,0.55,2.01,0.57,3.06c0.08,1.73,0.09,2.25,0.09,6.64s-0.02,4.91-0.09,6.65
			c-0.01,1.04-0.21,2.08-0.57,3.05c-0.26,0.71-0.69,1.36-1.23,1.89c-0.53,0.55-1.18,0.97-1.89,1.23c-0.98,0.36-2.01,0.55-3.05,0.57
			c-1.73,0.08-2.26,0.1-6.65,0.1s-4.91-0.02-6.65-0.1c-1.04-0.01-2.08-0.2-3.05-0.57c-1.43-0.55-2.57-1.69-3.12-3.12
			c-0.36-0.98-0.55-2.01-0.57-3.05c-0.08-1.73-0.09-2.25-0.09-6.65s0.02-4.91,0.09-6.64c0.01-1.04,0.21-2.08,0.57-3.06
			c0.55-1.43,1.69-2.57,3.12-3.12c0.98-0.36,2.01-0.55,3.05-0.56C-149.99,8.01-149.46,7.99-145.07,7.99 M-145.07,5.03
			c-4.47,0-5.03,0.02-6.78,0.1c-1.36,0.03-2.72,0.28-3.99,0.76c-2.21,0.85-3.96,2.6-4.81,4.81c-0.48,1.28-0.74,2.63-0.77,3.99
			c-0.08,1.75-0.1,2.32-0.1,6.78s0.02,5.03,0.1,6.78c0.03,1.36,0.29,2.71,0.77,3.99c0.85,2.21,2.6,3.96,4.81,4.81
			c1.28,0.48,2.63,0.73,3.99,0.76c1.75,0.08,2.31,0.1,6.78,0.1c4.47,0,5.03-0.02,6.78-0.1c1.36-0.03,2.71-0.29,3.99-0.76
			c2.21-0.86,3.95-2.6,4.81-4.81c0.48-1.28,0.74-2.63,0.77-3.99c0.08-1.75,0.1-2.31,0.1-6.78s-0.02-5.03-0.1-6.78
			c-0.03-1.36-0.29-2.71-0.77-3.99c-0.85-2.21-2.6-3.96-4.81-4.81c-1.28-0.48-2.63-0.74-3.99-0.76
			C-140.04,5.05-140.61,5.03-145.07,5.03"/>
		<path id="Path_29211" class="st0" d="M-145.07,13.03c-4.67,0-8.45,3.78-8.45,8.45c0,4.67,3.78,8.45,8.45,8.45
			c4.67,0,8.45-3.78,8.45-8.45C-136.62,16.81-140.41,13.03-145.07,13.03C-145.07,13.03-145.07,13.03-145.07,13.03 M-145.07,26.96
			c-3.03,0-5.48-2.46-5.48-5.48s2.46-5.48,5.48-5.48c3.03,0,5.48,2.46,5.48,5.48C-139.59,24.5-142.04,26.96-145.07,26.96
			C-145.07,26.96-145.07,26.96-145.07,26.96"/>
		<path id="Path_29212" class="st0" d="M-134.32,12.7c0,1.09-0.89,1.97-1.98,1.97s-1.97-0.89-1.97-1.98c0-1.09,0.88-1.97,1.97-1.97
			C-135.2,10.72-134.32,11.61-134.32,12.7C-134.32,12.7-134.32,12.7-134.32,12.7"/>
	</g>
</g>
</svg>
