<?xml version="1.0" encoding="utf-8"?>
<!-- Generator: Adobe Illustrator 24.2.1, SVG Export Plug-In . SVG Version: 6.00 Build 0)  -->
<svg version="1.1" id="Layer_1" xmlns="http://www.w3.org/2000/svg" xmlns:xlink="http://www.w3.org/1999/xlink" x="0px" y="0px"
	 viewBox="0 0 60 60" style="enable-background:new 0 0 60 60;" xml:space="preserve">
<style type="text/css">
	.st0{fill:#000;}
</style>
<g id="Component_50_1" transform="translate(55.52)">
	<g id="Path_29203">
		<path class="st0" d="M-25.52,3c14.89,0,27,12.11,27,27c0,7.21-2.81,13.99-7.91,19.09c-5.1,5.1-11.88,7.91-19.09,7.91
			c-14.89,0-27-12.11-27-27c0-7.21,2.81-13.99,7.91-19.09C-39.51,5.81-32.73,3-25.52,3L-25.52,3 M-25.52,0C-25.52,0-25.52,0-25.52,0
			c-16.57,0-30,13.43-30,30c0,0,0,0,0,0c0,16.57,13.43,30,30,30h0c16.57,0,30-13.43,30-30C4.48,13.43-8.95,0-25.52,0L-25.52,0z"/>
	</g>
	<path id="Path_29204" class="st0" d="M-41.5,40.04c8.67,5.56,20.21,3.03,25.77-5.64c2.08-3.25,3.1-7.07,2.93-10.92
		c1.28-0.93,2.39-2.08,3.27-3.39c-1.2,0.53-2.47,0.88-3.77,1.03c1.37-0.82,2.39-2.11,2.88-3.63c-1.29,0.76-2.7,1.3-4.17,1.59
		c-2.48-2.64-6.63-2.77-9.28-0.29c-1.71,1.6-2.43,3.99-1.9,6.27c-5.28-0.26-10.19-2.75-13.53-6.84c-1.74,3-0.85,6.83,2.03,8.75
		c-1.04-0.03-2.06-0.32-2.97-0.82c-0.04,3.15,2.17,5.89,5.26,6.52c-0.97,0.26-1.98,0.3-2.96,0.11c0.86,2.67,3.32,4.5,6.12,4.55
		C-34.55,39.47-38.04,40.45-41.5,40.04z"/>
</g>
</svg>
